<svg xmlns="http://www.w3.org/2000/svg" viewBox="0 0 72 90" x="0px" y="0px"><title>line finish</title><g data-name="Layer 25"><path d="M68,8a1,1,0,0,0-1,1V62H41a1,1,0,0,0-1,1,4,4,0,0,1-8,0,1,1,0,0,0-1-1H5V9A1,1,0,0,0,3,9V63a1,1,0,0,0,1,1H30.0835a6.0005,6.0005,0,0,0,11.833,0H68a1,1,0,0,0,1-1V9A1,1,0,0,0,68,8Z"/><path d="M8,60H64a1,1,0,0,0,1-1V4a1,1,0,0,0-1-1H8A1,1,0,0,0,7,4V59A1,1,0,0,0,8,60ZM9,5H63V58H37V19a1,1,0,0,0-2,0V58H9Z"/><path d="M36,16a1,1,0,0,0,1-1V12a1,1,0,0,0-2,0v3A1,1,0,0,0,36,16Z"/><path d="M36,10a1,1,0,0,0,1-1V8a1,1,0,0,0-2,0V9A1,1,0,0,0,36,10Z"/><path d="M13,11h6a1,1,0,0,0,0-2H13a1,1,0,0,0,0,2Z"/><path d="M31,13H13a1,1,0,0,0,0,2H31a1,1,0,0,0,0-2Z"/><path d="M13,22h6a1,1,0,0,0,0-2H13a1,1,0,0,0,0,2Z"/><path d="M31,24H13a1,1,0,0,0,0,2H31a1,1,0,0,0,0-2Z"/><path d="M13,33h6a1,1,0,0,0,0-2H13a1,1,0,0,0,0,2Z"/><path d="M31,35H13a1,1,0,0,0,0,2H31a1,1,0,0,0,0-2Z"/><path d="M13,44h6a1,1,0,0,0,0-2H13a1,1,0,0,0,0,2Z"/><path d="M31,46H13a1,1,0,0,0,0,2H31a1,1,0,0,0,0-2Z"/><path d="M19,52H13a1,1,0,0,0,0,2h6a1,1,0,0,0,0-2Z"/><path d="M41,28a1,1,0,0,0,1-1V25a1,1,0,0,0-2,0v2A1,1,0,0,0,41,28Z"/><path d="M59,28a1,1,0,0,0,1-1V10a1,1,0,0,0-2,0V27A1,1,0,0,0,59,28Z"/><path d="M53,28a1,1,0,0,0,1-1V15a1,1,0,0,0-2,0V27A1,1,0,0,0,53,28Z"/><path d="M47,28a1,1,0,0,0,1-1V20a1,1,0,0,0-2,0v7A1,1,0,0,0,47,28Z"/><path d="M41,31H59a1,1,0,0,0,0-2H41a1,1,0,0,0,0,2Z"/><path d="M50,54A10,10,0,1,0,40,44,10.01114,10.01114,0,0,0,50,54Zm7.93054-11H51V36.06946A8.00705,8.00705,0,0,1,57.93054,43ZM49,36.06946V44a1,1,0,0,0,1,1h7.93054A7.99643,7.99643,0,1,1,49,36.06946Z"/></g><text x="0" y="87" fill="#000000" font-size="5px" font-weight="bold" font-family="'Helvetica Neue', Helvetica, Arial-Unicode, Arial, Sans-serif">Created by Reion</text><text x="0" y="92" fill="#000000" font-size="5px" font-weight="bold" font-family="'Helvetica Neue', Helvetica, Arial-Unicode, Arial, Sans-serif">from the Noun Project</text></svg>