<svg xmlns="http://www.w3.org/2000/svg" data-name="Layer 1" viewBox="0 0 64 80" x="0px" y="0px"><title>Collaboration, communication, conversation, coworking</title><path d="M14,46c3.05,0,5-4.6,5-7A5,5,0,0,0,9,39C9,41.4,10.95,46,14,46Zm0-10a3,3,0,0,1,3,3c0,2-1.61,5-3,5s-3-3-3-5A3,3,0,0,1,14,36Z"/><path d="M4,51v6a1,1,0,0,0,.59.91,23.2,23.2,0,0,0,18.81,0A1,1,0,0,0,24,57V51a1,1,0,0,0-.55-.89l-6-3a1,1,0,0,0-1.34.45L14,51.76l-2.11-4.21a1,1,0,0,0-1.34-.45l-6,3A1,1,0,0,0,4,51Zm2,.62,4.55-2.28,2.55,5.11a1,1,0,0,0,1.79,0l2.55-5.11L22,51.62v4.72a21.18,21.18,0,0,1-16,0Z"/><path d="M50,16c3.05,0,5-4.6,5-7A5,5,0,0,0,45,9C45,11.4,46.95,16,50,16ZM50,6a3,3,0,0,1,3,3c0,2-1.61,5-3,5s-3-3-3-5A3,3,0,0,1,50,6Z"/><path d="M59.45,20.11l-6-3a1,1,0,0,0-1.34.45L50,21.76l-2.11-4.21a1,1,0,0,0-1.34-.45l-6,3A1,1,0,0,0,40,21v6a1,1,0,0,0,.59.91,23.2,23.2,0,0,0,18.81,0A1,1,0,0,0,60,27V21A1,1,0,0,0,59.45,20.11ZM58,26.34a21.2,21.2,0,0,1-16,0V21.62l4.55-2.28,2.55,5.11a1,1,0,0,0,1.79,0l2.55-5.11L58,21.62Z"/><path d="M39,10H14a1,1,0,0,0-1,1V29.48l-1.32-1.21a1,1,0,0,0-1.35,1.47l3,2.75a1,1,0,0,0,1.35,0l3-2.75a1,1,0,1,0-1.35-1.47L15,29.48V12H39a1,1,0,0,0,0-2Z"/><path d="M27,50a1,1,0,0,0,0,2H50a1,1,0,0,0,1-1V35.27l1.32,1.21A1,1,0,0,0,53.68,35l-3-2.75a471.13,471.13,0,0,1-.3-.19,1,1,0,0,0-.75,0,1,1,0,0,0-.14.09,1,1,0,0,0-.16.1l-3,2.75a1,1,0,1,0,1.35,1.47L49,35.27V50Z"/><text x="0" y="79" fill="#000000" font-size="5px" font-weight="bold" font-family="'Helvetica Neue', Helvetica, Arial-Unicode, Arial, Sans-serif">Created by Fauzan Adiima</text><text x="0" y="84" fill="#000000" font-size="5px" font-weight="bold" font-family="'Helvetica Neue', Helvetica, Arial-Unicode, Arial, Sans-serif">from the Noun Project</text></svg>